<svg height="475pt" viewBox="0 -61 475.4256 475" width="475pt" xmlns="http://www.w3.org/2000/svg" xmlns:xlink="http://www.w3.org/1999/xlink"><linearGradient id="a"><stop offset=".322" stop-color="#a163f5"/><stop offset=".466" stop-color="#b074ee"/><stop offset=".752" stop-color="#d8a1dd"/><stop offset=".898" stop-color="#efbad3"/></linearGradient><linearGradient id="b" gradientTransform="matrix(1 0 0 -1 -18.278 433.289962)" gradientUnits="userSpaceOnUse" x1="342.971" x2="351.972" xlink:href="#a" y1="7.817" y2="400.856"/><linearGradient id="c" gradientTransform="matrix(1 0 0 -1 -18.278 433.289962)" gradientUnits="userSpaceOnUse" x1="140.597" x2="149.598" xlink:href="#a" y1="12.452" y2="405.491"/><linearGradient id="d" gradientTransform="matrix(1 0 0 -1 -18.278 433.289962)" gradientUnits="userSpaceOnUse" x1="94.631" x2="103.632" xlink:href="#a" y1="13.504" y2="406.544"/><linearGradient id="e" gradientTransform="matrix(1 0 0 -1 -18.278 433.289962)" gradientUnits="userSpaceOnUse" x1="96.577" x2="105.578" xlink:href="#a" y1="13.46" y2="406.499"/><linearGradient id="f" gradientTransform="matrix(1 0 0 -1 -18.278 433.289962)" gradientUnits="userSpaceOnUse" x1="165.43" x2="174.431" xlink:href="#a" y1="11.883" y2="404.922"/><path d="m448.800781 14.441406c-18.96875-18.972656-49.726562-18.972656-68.699219 0l-160.449218 160.449219c-6.054688 6.058594-10.402344 13.609375-12.601563 21.890625l-21.0625 79.371094c-.90625 3.414062.058594 7.054687 2.535157 9.574218 2.476562 2.519532 6.101562 3.546876 9.53125 2.699219l80.277343-19.863281c8.585938-2.125 16.429688-6.550781 22.683594-12.804688l99.84375-99.847656c3.417969-.921875 6.085937-3.589844 7.011719-7.007812l27.539062-27.539063c3.417969-.925781 6.085938-3.59375 7.011719-7.011719l18.796875-18.800781c18.941406-18.980469 18.941406-49.714843 0-68.699219zm-51.511719 116.753906-52.828124-52.828124 20.40625-20.40625 52.832031 52.828124zm-110.421874 110.421876c-3.675782 3.679687-8.289063 6.28125-13.339844 7.53125l-63.878906 15.800781 16.730468-63.042969c1.296875-4.867188 3.851563-9.3125 7.414063-12.875l96.527343-96.523438 52.832032 52.832032zm160.203124-160.199219-15.234374 15.230469-52.828126-52.828126 15.230469-15.230468c11.160157-11.160156 29.253907-11.160156 40.414063 0l12.414062 12.414062c11.140625 11.167969 11.140625 29.246094 0 40.410156zm0 0" fill="url(#b)"/><path d="m10 98.515625h239.859375c5.523437 0 10-4.480469 10-10 0-5.523437-4.476563-10-10-10h-239.859375c-5.523438 0-10 4.476563-10 10 0 5.519531 4.476562 10 10 10zm0 0" fill="url(#c)"/><path d="m10 183.546875h143.984375c5.523437 0 10-4.476563 10-10s-4.476563-10-10-10h-143.984375c-5.523438 0-10 4.476563-10 10s4.476562 10 10 10zm0 0" fill="url(#d)"/><path d="m10 268.578125h143.984375c5.523437 0 10-4.476563 10-10s-4.476563-10-10-10h-143.984375c-5.523438 0-10 4.476563-10 10s4.476562 10 10 10zm0 0" fill="url(#e)"/><path d="m287.867188 333.609375h-277.867188c-5.523438 0-10 4.476563-10 10s4.476562 10 10 10h277.867188c5.523437 0 10-4.476563 10-10s-4.476563-10-10-10zm0 0" fill="url(#f)"/></svg>